TITLE ""
FILE "LR_black_phrase_C01.mp3" MP3
  TRACK 01 AUDIO
    TITLE "LR_black_phrase_C01_001"
    INDEX 01 00:00:00
  TRACK 02 AUDIO
    TITLE "LR_black_phrase_C01_002"
    INDEX 01 00:00:14
  TRACK 03 AUDIO
    TITLE "LR_black_phrase_C01_003"
    INDEX 01 00:01:45
  TRACK 04 AUDIO
    TITLE "LR_black_phrase_C01_004"
    INDEX 01 00:02:03
  TRACK 05 AUDIO
    TITLE "LR_black_phrase_C01_005"
    INDEX 01 00:03:18
  TRACK 06 AUDIO
    TITLE "LR_black_phrase_C01_006"
    INDEX 01 00:04:22
  TRACK 07 AUDIO
    TITLE "LR_black_phrase_C01_007"
    INDEX 01 00:05:68
  TRACK 08 AUDIO
    TITLE "LR_black_phrase_C01_008"
    INDEX 01 00:06:32
  TRACK 09 AUDIO
    TITLE "LR_black_phrase_C01_009"
    INDEX 01 00:08:37
  TRACK 10 AUDIO
    TITLE "LR_black_phrase_C01_010"
    INDEX 01 00:08:61
  TRACK 11 AUDIO
    TITLE "LR_black_phrase_C01_011"
    INDEX 01 00:10:64
  TRACK 12 AUDIO
    TITLE "LR_black_phrase_C01_012"
    INDEX 01 00:11:63
  TRACK 13 AUDIO
    TITLE "LR_black_phrase_C01_013"
    INDEX 01 00:13:17
  TRACK 14 AUDIO
    TITLE "LR_black_phrase_C01_014"
    INDEX 01 00:13:58
  TRACK 15 AUDIO
    TITLE "LR_black_phrase_C01_015"
    INDEX 01 00:15:75
  TRACK 16 AUDIO
    TITLE "LR_black_phrase_C01_016"
    INDEX 01 00:16:72
  TRACK 17 AUDIO
    TITLE "LR_black_phrase_C01_017"
    INDEX 01 00:18:45
  TRACK 18 AUDIO
    TITLE "LR_black_phrase_C01_018"
    INDEX 01 00:19:10
  TRACK 19 AUDIO
    TITLE "LR_black_phrase_C01_019"
    INDEX 01 00:21:09
  TRACK 20 AUDIO
    TITLE "LR_black_phrase_C01_020"
    INDEX 01 00:21:38
  TRACK 21 AUDIO
    TITLE "LR_black_phrase_C01_021"
    INDEX 01 00:23:37
  TRACK 22 AUDIO
    TITLE "LR_black_phrase_C01_022"
    INDEX 01 00:24:42
  TRACK 23 AUDIO
    TITLE "LR_black_phrase_C01_023"
    INDEX 01 00:25:59
  TRACK 24 AUDIO
    TITLE "LR_black_phrase_C01_024"
    INDEX 01 00:26:27
  TRACK 25 AUDIO
    TITLE "LR_black_phrase_C01_025"
    INDEX 01 00:27:66
  TRACK 26 AUDIO
    TITLE "LR_black_phrase_C01_026"
    INDEX 01 00:28:65
  TRACK 27 AUDIO
    TITLE "LR_black_phrase_C01_027"
    INDEX 01 00:30:62
  TRACK 28 AUDIO
    TITLE "LR_black_phrase_C01_028"
    INDEX 01 00:31:28
  TRACK 29 AUDIO
    TITLE "LR_black_phrase_C01_029"
    INDEX 01 00:34:13
  TRACK 30 AUDIO
    TITLE "LR_black_phrase_C01_030"
    INDEX 01 00:34:44
  TRACK 31 AUDIO
    TITLE "LR_black_phrase_C01_031"
    INDEX 01 00:37:29
  TRACK 32 AUDIO
    TITLE "LR_black_phrase_C01_032"
    INDEX 01 00:38:32
  TRACK 33 AUDIO
    TITLE "LR_black_phrase_C01_033"
    INDEX 01 00:39:42
  TRACK 34 AUDIO
    TITLE "LR_black_phrase_C01_034"
    INDEX 01 00:40:06
  TRACK 35 AUDIO
    TITLE "LR_black_phrase_C01_035"
    INDEX 01 00:42:15
  TRACK 36 AUDIO
    TITLE "LR_black_phrase_C01_036"
    INDEX 01 00:43:12
  TRACK 37 AUDIO
    TITLE "LR_black_phrase_C01_037"
    INDEX 01 00:45:50
  TRACK 38 AUDIO
    TITLE "LR_black_phrase_C01_038"
    INDEX 01 00:46:14
  TRACK 39 AUDIO
    TITLE "LR_black_phrase_C01_039"
    INDEX 01 00:48:27
  TRACK 40 AUDIO
    TITLE "LR_black_phrase_C01_040"
    INDEX 01 00:48:56
  TRACK 41 AUDIO
    TITLE "LR_black_phrase_C01_041"
    INDEX 01 00:50:71
  TRACK 42 AUDIO
    TITLE "LR_black_phrase_C01_042"
    INDEX 01 00:51:74
  TRACK 43 AUDIO
    TITLE "LR_black_phrase_C01_043"
    INDEX 01 00:53:22
  TRACK 44 AUDIO
    TITLE "LR_black_phrase_C01_044"
    INDEX 01 00:53:61
  TRACK 45 AUDIO
    TITLE "LR_black_phrase_C01_045"
    INDEX 01 00:56:05
  TRACK 46 AUDIO
    TITLE "LR_black_phrase_C01_046"
    INDEX 01 00:57:04
  TRACK 47 AUDIO
    TITLE "LR_black_phrase_C01_047"
    INDEX 01 00:58:67
  TRACK 48 AUDIO
    TITLE "LR_black_phrase_C01_048"
    INDEX 01 00:59:29
  TRACK 49 AUDIO
    TITLE "LR_black_phrase_C01_049"
    INDEX 01 01:01:41
  TRACK 50 AUDIO
    TITLE "LR_black_phrase_C01_050"
    INDEX 01 01:01:69
  TRACK 51 AUDIO
    TITLE "LR_black_phrase_C01_051"
    INDEX 01 01:04:04
  TRACK 52 AUDIO
    TITLE "LR_black_phrase_C01_052"
    INDEX 01 01:05:10
  TRACK 53 AUDIO
    TITLE "LR_black_phrase_C01_053"
    INDEX 01 01:06:46
  TRACK 54 AUDIO
    TITLE "LR_black_phrase_C01_054"
    INDEX 01 01:07:09
  TRACK 55 AUDIO
    TITLE "LR_black_phrase_C01_055"
    INDEX 01 01:09:27
  TRACK 56 AUDIO
    TITLE "LR_black_phrase_C01_056"
    INDEX 01 01:10:27
  TRACK 57 AUDIO
    TITLE "LR_black_phrase_C01_057"
    INDEX 01 01:13:35
  TRACK 58 AUDIO
    TITLE "LR_black_phrase_C01_058"
    INDEX 01 01:13:74
  TRACK 59 AUDIO
    TITLE "LR_black_phrase_C01_059"
    INDEX 01 01:17:05
  TRACK 60 AUDIO
    TITLE "LR_black_phrase_C01_060"
    INDEX 01 01:17:34
  TRACK 61 AUDIO
    TITLE "LR_black_phrase_C01_061"
    INDEX 01 01:20:39
  TRACK 62 AUDIO
    TITLE "LR_black_phrase_C01_062"
    INDEX 01 01:21:48
  TRACK 63 AUDIO
    TITLE "LR_black_phrase_C01_063"
    INDEX 01 01:22:69
  TRACK 64 AUDIO
    TITLE "LR_black_phrase_C01_064"
    INDEX 01 01:23:31
  TRACK 65 AUDIO
    TITLE "LR_black_phrase_C01_065"
    INDEX 01 01:25:44
  TRACK 66 AUDIO
    TITLE "LR_black_phrase_C01_066"
    INDEX 01 01:26:41
  TRACK 67 AUDIO
    TITLE "LR_black_phrase_C01_067"
    INDEX 01 01:30:14
  TRACK 68 AUDIO
    TITLE "LR_black_phrase_C01_068"
    INDEX 01 01:30:53
  TRACK 69 AUDIO
    TITLE "LR_black_phrase_C01_069"
    INDEX 01 01:33:55
  TRACK 70 AUDIO
    TITLE "LR_black_phrase_C01_070"
    INDEX 01 01:34:09
  TRACK 71 AUDIO
    TITLE "LR_black_phrase_C01_071"
    INDEX 01 01:37:12
  TRACK 72 AUDIO
    TITLE "LR_black_phrase_C01_072"
    INDEX 01 01:38:17
  TRACK 73 AUDIO
    TITLE "LR_black_phrase_C01_073"
    INDEX 01 01:39:32
  TRACK 74 AUDIO
    TITLE "LR_black_phrase_C01_074"
    INDEX 01 01:39:73
  TRACK 75 AUDIO
    TITLE "LR_black_phrase_C01_075"
    INDEX 01 01:41:47
  TRACK 76 AUDIO
    TITLE "LR_black_phrase_C01_076"
    INDEX 01 01:42:44
  TRACK 77 AUDIO
    TITLE "LR_black_phrase_C01_077"
    INDEX 01 01:45:09
  TRACK 78 AUDIO
    TITLE "LR_black_phrase_C01_078"
    INDEX 01 01:45:48
  TRACK 79 AUDIO
    TITLE "LR_black_phrase_C01_079"
    INDEX 01 01:48:04
  TRACK 80 AUDIO
    TITLE "LR_black_phrase_C01_080"
    INDEX 01 01:48:25
  TRACK 81 AUDIO
    TITLE "LR_black_phrase_C01_081"
    INDEX 01 01:50:54
  TRACK 82 AUDIO
    TITLE "LR_black_phrase_C01_082"
    INDEX 01 01:51:49
  TRACK 83 AUDIO
    TITLE "LR_black_phrase_C01_083"
    INDEX 01 01:52:58
  TRACK 84 AUDIO
    TITLE "LR_black_phrase_C01_084"
    INDEX 01 01:53:24
  TRACK 85 AUDIO
    TITLE "LR_black_phrase_C01_085"
    INDEX 01 01:55:51
  TRACK 86 AUDIO
    TITLE "LR_black_phrase_C01_086"
    INDEX 01 01:56:52
  TRACK 87 AUDIO
    TITLE "LR_black_phrase_C01_087"
    INDEX 01 02:00:13
  TRACK 88 AUDIO
    TITLE "LR_black_phrase_C01_088"
    INDEX 01 02:00:52
  TRACK 89 AUDIO
    TITLE "LR_black_phrase_C01_089"
    INDEX 01 02:03:29
  TRACK 90 AUDIO
    TITLE "LR_black_phrase_C01_090"
    INDEX 01 02:03:56
  TRACK 91 AUDIO
    TITLE "LR_black_phrase_C01_091"
    INDEX 01 02:06:35
  TRACK 92 AUDIO
    TITLE "LR_black_phrase_C01_092"
    INDEX 01 02:07:36
  TRACK 93 AUDIO
    TITLE "LR_black_phrase_C01_093"
    INDEX 01 02:08:57
  TRACK 94 AUDIO
    TITLE "LR_black_phrase_C01_094"
    INDEX 01 02:09:22
  TRACK 95 AUDIO
    TITLE "LR_black_phrase_C01_095"
    INDEX 01 02:10:54
  TRACK 96 AUDIO
    TITLE "LR_black_phrase_C01_096"
    INDEX 01 02:11:52
  TRACK 97 AUDIO
    TITLE "LR_black_phrase_C01_097"
    INDEX 01 02:13:74
  TRACK 98 AUDIO
    TITLE "LR_black_phrase_C01_098"
    INDEX 01 02:14:40
  TRACK 99 AUDIO
    TITLE "LR_black_phrase_C01_099"
    INDEX 01 02:16:74
  TRACK 100 AUDIO
    TITLE "LR_black_phrase_C01_100"
    INDEX 01 02:17:29
  TRACK 101 AUDIO
    TITLE "LR_black_phrase_C01_101"
    INDEX 01 02:19:65
  TRACK 102 AUDIO
    TITLE "LR_black_phrase_C01_102"
    INDEX 01 02:20:70
  TRACK 103 AUDIO
    TITLE "LR_black_phrase_C01_103"
    INDEX 01 02:22:07
  TRACK 104 AUDIO
    TITLE "LR_black_phrase_C01_104"
    INDEX 01 02:22:50
  TRACK 105 AUDIO
    TITLE "LR_black_phrase_C01_105"
    INDEX 01 02:23:49
  TRACK 106 AUDIO
    TITLE "LR_black_phrase_C01_106"
    INDEX 01 02:24:48
  TRACK 107 AUDIO
    TITLE "LR_black_phrase_C01_107"
    INDEX 01 02:26:16
  TRACK 108 AUDIO
    TITLE "LR_black_phrase_C01_108"
    INDEX 01 02:26:55
  TRACK 109 AUDIO
    TITLE "LR_black_phrase_C01_109"
    INDEX 01 02:28:38
  TRACK 110 AUDIO
    TITLE "LR_black_phrase_C01_110"
    INDEX 01 02:28:70
  TRACK 111 AUDIO
    TITLE "LR_black_phrase_C01_111"
    INDEX 01 02:30:55
  TRACK 112 AUDIO
    TITLE "LR_black_phrase_C01_112"
    INDEX 01 02:31:58
  TRACK 113 AUDIO
    TITLE "LR_black_phrase_C01_113"
    INDEX 01 02:33:16
  TRACK 114 AUDIO
    TITLE "LR_black_phrase_C01_114"
    INDEX 01 02:33:57
  TRACK 115 AUDIO
    TITLE "LR_black_phrase_C01_115"
    INDEX 01 02:36:12
  TRACK 116 AUDIO
    TITLE "LR_black_phrase_C01_116"
    INDEX 01 02:37:08
  TRACK 117 AUDIO
    TITLE "LR_black_phrase_C01_117"
    INDEX 01 02:39:23
  TRACK 118 AUDIO
    TITLE "LR_black_phrase_C01_118"
    INDEX 01 02:39:60
  TRACK 119 AUDIO
    TITLE "LR_black_phrase_C01_119"
    INDEX 01 02:42:29
  TRACK 120 AUDIO
    TITLE "LR_black_phrase_C01_120"
    INDEX 01 02:42:62
  TRACK 121 AUDIO
    TITLE "LR_black_phrase_C01_121"
    INDEX 01 02:45:29
  TRACK 122 AUDIO
    TITLE "LR_black_phrase_C01_122"
    INDEX 01 02:46:34
  TRACK 123 AUDIO
    TITLE "LR_black_phrase_C01_123"
    INDEX 01 02:47:48
  TRACK 124 AUDIO
    TITLE "LR_black_phrase_C01_124"
    INDEX 01 02:48:12
  TRACK 125 AUDIO
    TITLE "LR_black_phrase_C01_125"
    INDEX 01 02:50:03
  TRACK 126 AUDIO
    TITLE "LR_black_phrase_C01_126"
    INDEX 01 02:51:02
  TRACK 127 AUDIO
    TITLE "LR_black_phrase_C01_127"
    INDEX 01 02:52:74
  TRACK 128 AUDIO
    TITLE "LR_black_phrase_C01_128"
    INDEX 01 02:53:40
  TRACK 129 AUDIO
    TITLE "LR_black_phrase_C01_129"
    INDEX 01 02:55:28
  TRACK 130 AUDIO
    TITLE "LR_black_phrase_C01_130"
    INDEX 01 02:55:57
  TRACK 131 AUDIO
    TITLE "LR_black_phrase_C01_131"
    INDEX 01 02:57:44
  TRACK 132 AUDIO
    TITLE "LR_black_phrase_C01_132"
    INDEX 01 02:58:49
  TRACK 133 AUDIO
    TITLE "LR_black_phrase_C01_133"
    INDEX 01 02:59:70
  TRACK 134 AUDIO
    TITLE "LR_black_phrase_C01_134"
    INDEX 01 03:00:35
  TRACK 135 AUDIO
    TITLE "LR_black_phrase_C01_135"
    INDEX 01 03:02:63
  TRACK 136 AUDIO
    TITLE "LR_black_phrase_C01_136"
    INDEX 01 03:03:62
  TRACK 137 AUDIO
    TITLE "LR_black_phrase_C01_137"
    INDEX 01 03:05:55
  TRACK 138 AUDIO
    TITLE "LR_black_phrase_C01_138"
    INDEX 01 03:06:19
  TRACK 139 AUDIO
    TITLE "LR_black_phrase_C01_139"
    INDEX 01 03:08:05
  TRACK 140 AUDIO
    TITLE "LR_black_phrase_C01_140"
    INDEX 01 03:08:36
  TRACK 141 AUDIO
    TITLE "LR_black_phrase_C01_141"
    INDEX 01 03:10:19
  TRACK 142 AUDIO
    TITLE "LR_black_phrase_C01_142"
    INDEX 01 03:11:23
  TRACK 143 AUDIO
    TITLE "LR_black_phrase_C01_143"
    INDEX 01 03:12:44
  TRACK 144 AUDIO
    TITLE "LR_black_phrase_C01_144"
    INDEX 01 03:13:06
  TRACK 145 AUDIO
    TITLE "LR_black_phrase_C01_145"
    INDEX 01 03:15:71
  TRACK 146 AUDIO
    TITLE "LR_black_phrase_C01_146"
    INDEX 01 03:16:69
  TRACK 147 AUDIO
    TITLE "LR_black_phrase_C01_147"
    INDEX 01 03:19:61
  TRACK 148 AUDIO
    TITLE "LR_black_phrase_C01_148"
    INDEX 01 03:20:24
  TRACK 149 AUDIO
    TITLE "LR_black_phrase_C01_149"
    INDEX 01 03:22:69
  TRACK 150 AUDIO
    TITLE "LR_black_phrase_C01_150"
    INDEX 01 03:23:28
  TRACK 151 AUDIO
    TITLE "LR_black_phrase_C01_151"
    INDEX 01 03:25:74
  TRACK 152 AUDIO
    TITLE "LR_black_phrase_C01_152"
    INDEX 01 03:27:10
  TRACK 153 AUDIO
    TITLE "LR_black_phrase_C01_153"
    INDEX 01 03:28:25
  TRACK 154 AUDIO
    TITLE "LR_black_phrase_C01_154"
    INDEX 01 03:28:64
  TRACK 155 AUDIO
    TITLE "LR_black_phrase_C01_155"
    INDEX 01 03:30:20
  TRACK 156 AUDIO
    TITLE "LR_black_phrase_C01_156"
    INDEX 01 03:31:14
  TRACK 157 AUDIO
    TITLE "LR_black_phrase_C01_157"
    INDEX 01 03:33:57
  TRACK 158 AUDIO
    TITLE "LR_black_phrase_C01_158"
    INDEX 01 03:34:20
  TRACK 159 AUDIO
    TITLE "LR_black_phrase_C01_159"
    INDEX 01 03:37:08
  TRACK 160 AUDIO
    TITLE "LR_black_phrase_C01_160"
    INDEX 01 03:37:40
  TRACK 161 AUDIO
    TITLE "LR_black_phrase_C01_161"
    INDEX 01 03:40:28
  TRACK 162 AUDIO
    TITLE "LR_black_phrase_C01_162"
    INDEX 01 03:41:35
  TRACK 163 AUDIO
    TITLE "LR_black_phrase_C01_163"
    INDEX 01 03:42:51
  TRACK 164 AUDIO
    TITLE "LR_black_phrase_C01_164"
    INDEX 01 03:43:15
  TRACK 165 AUDIO
    TITLE "LR_black_phrase_C01_165"
    INDEX 01 03:44:44
  TRACK 166 AUDIO
    TITLE "LR_black_phrase_C01_166"
    INDEX 01 03:45:37
  TRACK 167 AUDIO
    TITLE "LR_black_phrase_C01_167"
    INDEX 01 03:48:28
  TRACK 168 AUDIO
    TITLE "LR_black_phrase_C01_168"
    INDEX 01 03:48:67
  TRACK 169 AUDIO
    TITLE "LR_black_phrase_C01_169"
    INDEX 01 03:51:52
  TRACK 170 AUDIO
    TITLE "LR_black_phrase_C01_170"
    INDEX 01 03:52:08
  TRACK 171 AUDIO
    TITLE "LR_black_phrase_C01_171"
    INDEX 01 03:54:67
  TRACK 172 AUDIO
    TITLE "LR_black_phrase_C01_172"
    INDEX 01 03:55:73
  TRACK 173 AUDIO
    TITLE "LR_black_phrase_C01_173"
    INDEX 01 03:57:25
  TRACK 174 AUDIO
    TITLE "LR_black_phrase_C01_174"
    INDEX 01 03:57:64
  TRACK 175 AUDIO
    TITLE "LR_black_phrase_C01_175"
    INDEX 01 04:00:07
  TRACK 176 AUDIO
    TITLE "LR_black_phrase_C01_176"
    INDEX 01 04:01:07
  TRACK 177 AUDIO
    TITLE "LR_black_phrase_C01_177"
    INDEX 01 04:03:21
  TRACK 178 AUDIO
    TITLE "LR_black_phrase_C01_178"
    INDEX 01 04:03:63
  TRACK 179 AUDIO
    TITLE "LR_black_phrase_C01_179"
    INDEX 01 04:05:63
  TRACK 180 AUDIO
    TITLE "LR_black_phrase_C01_180"
    INDEX 01 04:06:18
  TRACK 181 AUDIO
    TITLE "LR_black_phrase_C01_181"
    INDEX 01 04:08:19
  TRACK 182 AUDIO
    TITLE "LR_black_phrase_C01_182"
    INDEX 01 04:09:22
  TRACK 183 AUDIO
    TITLE "LR_black_phrase_C01_183"
    INDEX 01 04:10:43
  TRACK 184 AUDIO
    TITLE "LR_black_phrase_C01_184"
    INDEX 01 04:11:07
  TRACK 185 AUDIO
    TITLE "LR_black_phrase_C01_185"
    INDEX 01 04:12:32
  TRACK 186 AUDIO
    TITLE "LR_black_phrase_C01_186"
    INDEX 01 04:13:30
  TRACK 187 AUDIO
    TITLE "LR_black_phrase_C01_187"
    INDEX 01 04:15:52
  TRACK 188 AUDIO
    TITLE "LR_black_phrase_C01_188"
    INDEX 01 04:16:18
  TRACK 189 AUDIO
    TITLE "LR_black_phrase_C01_189"
    INDEX 01 04:19:20
  TRACK 190 AUDIO
    TITLE "LR_black_phrase_C01_190"
    INDEX 01 04:19:48
  TRACK 191 AUDIO
    TITLE "LR_black_phrase_C01_191"
    INDEX 01 04:22:50
  TRACK 192 AUDIO
    TITLE "LR_black_phrase_C01_192"
    INDEX 01 04:23:52
  TRACK 193 AUDIO
    TITLE "LR_black_phrase_C01_193"
    INDEX 01 04:25:19
  TRACK 194 AUDIO
    TITLE "LR_black_phrase_C01_194"
    INDEX 01 04:25:50
  TRACK 195 AUDIO
    TITLE "LR_black_phrase_C01_195"
    INDEX 01 04:27:53
  TRACK 196 AUDIO
    TITLE "LR_black_phrase_C01_196"
    INDEX 01 04:28:55
  TRACK 197 AUDIO
    TITLE "LR_black_phrase_C01_197"
    INDEX 01 04:30:50
  TRACK 198 AUDIO
    TITLE "LR_black_phrase_C01_198"
    INDEX 01 04:31:12
  TRACK 199 AUDIO
    TITLE "LR_black_phrase_C01_199"
    INDEX 01 04:33:42
  TRACK 200 AUDIO
    TITLE "LR_black_phrase_C01_200"
    INDEX 01 04:33:70
  TRACK 201 AUDIO
    TITLE "LR_black_phrase_C01_201"
    INDEX 01 04:36:19
